<?xml version="1.0" encoding="UTF-8"?>
<svg version="1.1" xmlns="http://www.w3.org/2000/svg" width="512" height="512">
<path d="M0 0 C168.96 0 337.92 0 512 0 C512 168.96 512 337.92 512 512 C343.04 512 174.08 512 0 512 C0 343.04 0 174.08 0 0 Z " fill="#209CEE" transform="translate(0,0)"/>
<path d="M0 0 C1.05380859 0.80824219 1.05380859 0.80824219 2.12890625 1.6328125 C17.46228479 13.96146838 29.06825979 34.49958539 31.578125 54 C33.23540666 70.65820751 33.63547557 88.09115747 28 104 C27.55950074 105.33971391 27.11940987 106.67956215 26.6796875 108.01953125 C16.76333789 137.13864096 -4.51102437 160.7228398 -31.97192383 174.31982422 C-38.44483376 177.37589172 -45.02541305 179.37125253 -52 181 C-53.2684375 181.35578125 -54.536875 181.7115625 -55.84375 182.078125 C-62.39031939 183.50964885 -69.08448772 183.37201978 -75.75366211 183.37060547 C-78.03382017 183.37494541 -80.3119839 183.41125884 -82.59179688 183.44921875 C-94.77179606 183.54218641 -110.68492424 182.87383533 -120 174 C-122.54887113 170.87983016 -123.84316575 167.87130137 -124.5625 163.875 C-123.7383959 159.66291237 -122.51560195 158.501486 -119 156 C-112.57248385 153.59108852 -105.64027002 152.75224507 -98.90478516 151.57275391 C-79.18784731 148.10928105 -62.82415204 143.02051845 -50.25 126.375 C-39.82822896 110.422808 -37.77287359 92.7641134 -37.625 74.125 C-37.61098145 72.90087402 -37.59696289 71.67674805 -37.58251953 70.41552734 C-37.66372084 55.08513699 -41.98631806 42.4493291 -52.62109375 31.25390625 C-68.17471951 16.51754818 -91.35546267 12.58137401 -112 12.6875 C-113.75485718 12.69595947 -113.75485718 12.69595947 -115.54516602 12.70458984 C-139.51572483 13.03445243 -161.42315432 18.72574493 -183 29 C-183.9394043 29.44633789 -184.87880859 29.89267578 -185.84667969 30.35253906 C-189.96807108 32.31467123 -194.08753961 34.28032444 -198.1965332 36.26831055 C-199.13585693 36.72246338 -200.07518066 37.17661621 -201.04296875 37.64453125 C-201.87852295 38.05034424 -202.71407715 38.45615723 -203.57495117 38.87426758 C-210.70071512 42.18211994 -217.15030078 43.51473438 -225 43 C-227 41.875 -227 41.875 -228 40 C-228.82664254 30.39197442 -221.70638201 22.45745947 -215.875 15.375 C-206.22012347 4.115421 -194.06530835 -3.26663409 -181 -10 C-180.25443848 -10.38575195 -179.50887695 -10.77150391 -178.74072266 -11.16894531 C-167.17660397 -17.07662206 -155.5148764 -21.55264882 -143 -25 C-141.86175781 -25.31710938 -140.72351563 -25.63421875 -139.55078125 -25.9609375 C-94.3197547 -37.42476104 -36.67137392 -30.10912806 0 0 Z " fill="#FDFEFE" transform="translate(354,117)"/>
<path d="M0 0 C3.72390972 6.62255399 3.59149498 12.51367389 3.5625 19.9375 C3.56301361 20.62596008 3.56352722 21.31442017 3.5640564 22.02374268 C3.50596372 40.61498983 0.2964152 58.75573498 -3 77 C-3.22381348 78.26166992 -3.44762695 79.52333984 -3.67822266 80.82324219 C-6.01938807 93.91540642 -8.83018447 106.88842253 -11.75854492 119.86010742 C-13.56472589 127.9050775 -15.24096982 135.9684242 -16.8125 144.0625 C-17.1228418 145.6403125 -17.1228418 145.6403125 -17.43945312 147.25 C-17.63087891 148.25160156 -17.82230469 149.25320313 -18.01953125 150.28515625 C-18.18557861 151.15019775 -18.35162598 152.01523926 -18.52270508 152.90649414 C-19.72713205 160.71278272 -20.1887927 168.54833458 -20.5 176.43359375 C-20.5609082 177.87146996 -20.5609082 177.87146996 -20.62304688 179.33839417 C-20.75141503 182.37132322 -20.87614995 185.40438331 -21 188.4375 C-21.16356981 192.4363346 -21.33078886 196.43499436 -21.5 200.43359375 C-21.55317383 201.77785683 -21.55317383 201.77785683 -21.60742188 203.14927673 C-21.83971188 208.63639571 -22.25790797 214.08243142 -22.77932739 219.54942322 C-23.03218603 222.35742698 -23.16983071 225.15451861 -23.24609375 227.97265625 C-23.27896484 228.97490234 -23.31183594 229.97714844 -23.34570312 231.00976562 C-23.40701499 233.0487112 -23.46429195 235.08778202 -23.51757812 237.12695312 C-24.13734946 255.28742272 -24.13734946 255.28742272 -30.87109375 262.24609375 C-43.09587137 272.31751604 -61.17783784 273.97626531 -76.5078125 273.4375 C-80.74263748 272.90696264 -83.03277898 271.99601718 -85.875 268.828125 C-87.80672474 265.6890723 -88.56722552 262.59682771 -89 259 C-89.13631836 257.98256714 -89.13631836 257.98256714 -89.27539062 256.94458008 C-90.17018683 249.11938234 -90.15836775 241.30181224 -90.125 233.4375 C-90.12245209 232.72158691 -90.11990417 232.00567383 -90.11727905 231.26806641 C-90.09742566 226.51175176 -90.05416905 221.75604276 -90 217 C-89.99274902 216.13391113 -89.98549805 215.26782227 -89.97802734 214.37548828 C-89.57333798 184.57251704 -82.14553199 152.57854706 -73.29296875 124.24609375 C-72.27858241 120.98663756 -71.36946453 117.70811019 -70.48828125 114.41015625 C-45.83816893 22.44768778 -45.83816893 22.44768778 -12.4375 1.9375 C-8.11827648 -0.28294589 -4.79529133 -0.43593558 0 0 Z " fill="#FDFEFE" transform="translate(225,152)"/>
<path d="M0 0 C0.33 0 0.66 0 1 0 C1 13.53 1 27.06 1 41 C-12.53 41 -26.06 41 -40 41 C-36.76284016 39.38142008 -33.61375469 38.05715856 -30.25 36.75 C-17.68117409 31.49394553 -8.15454317 22.24628755 -2.9296875 9.5625 C-1.78124284 6.39703909 -0.79959012 3.27105048 0 0 Z " fill="#000000" transform="translate(511,471)"/>
<path d="M0 0 C1.61102614 3.22205228 2.90350921 6.33510084 4.1875 9.6875 C9.4388475 22.28767199 18.80051593 31.77110159 31.40234375 37.03515625 C34.57753084 38.21451146 37.71018197 39.19582226 41 40 C41 40.33 41 40.66 41 41 C27.47 41 13.94 41 0 41 C0 27.47 0 13.94 0 0 Z " fill="#000000" transform="translate(0,471)"/>
<path d="M0 0 C13.53 0 27.06 0 41 0 C41 13.53 41 27.06 41 41 C39.38897386 37.77794772 38.09649079 34.66489916 36.8125 31.3125 C31.5611525 18.71232801 22.19948407 9.22889841 9.59765625 3.96484375 C6.42246916 2.78548854 3.28981803 1.80417774 0 1 C0 0.67 0 0.34 0 0 Z " fill="#000000" transform="translate(471,0)"/>
<path d="M0 0 C13.53 0 27.06 0 41 0 C37.76284016 1.61857992 34.61375469 2.94284144 31.25 4.25 C18.68117409 9.50605447 9.15454317 18.75371245 3.9296875 31.4375 C2.78124284 34.60296091 1.79959012 37.72894952 1 41 C0.67 41 0.34 41 0 41 C0 27.47 0 13.94 0 0 Z " fill="#000000" transform="translate(0,0)"/>
</svg>
